<svg width="36" height="36" viewBox="0 0 36 36" fill="none" xmlns="http://www.w3.org/2000/svg">
<circle cx="18" cy="18" r="18" fill="#ED4D47"/>
<path d="M18.0018 13.8988C15.7316 13.8988 13.9005 15.7303 13.9005 18.001C13.9005 20.2716 15.7316 22.1032 18.0018 22.1032C20.2719 22.1032 22.1031 20.2716 22.1031 18.001C22.1031 15.7303 20.2719 13.8988 18.0018 13.8988ZM18.0018 20.6679C16.5347 20.6679 15.3354 19.4719 15.3354 18.001C15.3354 16.53 16.5312 15.334 18.0018 15.334C19.4724 15.334 20.6682 16.53 20.6682 18.001C20.6682 19.4719 19.4688 20.6679 18.0018 20.6679ZM23.2274 13.731C23.2274 14.2629 22.7991 14.6878 22.2708 14.6878C21.739 14.6878 21.3142 14.2594 21.3142 13.731C21.3142 13.2026 21.7426 12.7742 22.2708 12.7742C22.7991 12.7742 23.2274 13.2026 23.2274 13.731ZM25.9438 14.7021C25.8831 13.4204 25.5904 12.285 24.6516 11.3496C23.7165 10.4142 22.5814 10.1215 21.2999 10.0572C19.9793 9.98223 16.0207 9.98223 14.7001 10.0572C13.4222 10.1179 12.2871 10.4107 11.3484 11.3461C10.4096 12.2815 10.1205 13.4168 10.0562 14.6985C9.98126 16.0195 9.98126 19.9789 10.0562 21.2999C10.1169 22.5816 10.4096 23.7169 11.3484 24.6523C12.2871 25.5877 13.4186 25.8805 14.7001 25.9447C16.0207 26.0197 19.9793 26.0197 21.2999 25.9447C22.5814 25.8841 23.7165 25.5913 24.6516 24.6523C25.5868 23.7169 25.8795 22.5816 25.9438 21.2999C26.0187 19.9789 26.0187 16.0231 25.9438 14.7021ZM24.2376 22.7173C23.9592 23.417 23.4202 23.9561 22.717 24.2382C21.664 24.6559 19.1654 24.5595 18.0018 24.5595C16.8381 24.5595 14.336 24.6523 13.2866 24.2382C12.5869 23.9597 12.048 23.4206 11.766 22.7173C11.3484 21.664 11.4447 19.1649 11.4447 18.001C11.4447 16.8371 11.3519 14.3343 11.766 13.2847C12.0444 12.5849 12.5834 12.0458 13.2866 11.7638C14.3395 11.3461 16.8381 11.4425 18.0018 11.4425C19.1654 11.4425 21.6676 11.3496 22.717 11.7638C23.4166 12.0423 23.9556 12.5814 24.2376 13.2847C24.6552 14.3379 24.5588 16.8371 24.5588 18.001C24.5588 19.1649 24.6552 21.6676 24.2376 22.7173Z" fill="white"/>
</svg>
