<svg width="36" height="36" viewBox="0 0 36 36" fill="none" xmlns="http://www.w3.org/2000/svg">
<circle cx="18" cy="18" r="18" fill="#ED4D47"/>
<path fill-rule="evenodd" clip-rule="evenodd" d="M17.9095 14.6598L17.8699 14.0082C17.7511 12.3195 18.7938 10.777 20.4438 10.1787C21.0509 9.9659 22.0804 9.9393 22.7536 10.1255C23.0176 10.2053 23.5192 10.4712 23.8755 10.7105L24.5223 11.1494L25.235 10.9233C25.6311 10.8036 26.1591 10.6042 26.3966 10.4712C26.621 10.3515 26.819 10.285 26.819 10.3249C26.819 10.551 26.3306 11.3222 25.9214 11.7477C25.3671 12.3461 25.5255 12.3993 26.6474 12.0003C27.3206 11.7743 27.3337 11.7743 27.2018 12.0269C27.1225 12.1599 26.7134 12.6253 26.2778 13.0508C25.5386 13.7822 25.4991 13.862 25.4991 14.4736C25.4991 15.4177 25.0503 17.3857 24.6015 18.4628C23.7699 20.4839 21.9881 22.5715 20.2062 23.622C17.6983 25.0981 14.3589 25.4703 11.5475 24.606C10.6103 24.3135 9 23.5688 9 23.4359C9 23.396 9.48834 23.3428 10.0824 23.3295C11.3231 23.3029 12.5638 22.9572 13.6197 22.3455L14.3325 21.92L13.5141 21.6408C12.3526 21.2418 11.3099 20.3243 11.0459 19.46C10.9667 19.1808 10.9931 19.1675 11.7322 19.1675L12.4978 19.1542L11.851 18.8484C11.0855 18.4628 10.3859 17.8112 10.0427 17.1463C9.79191 16.6676 9.47521 15.4576 9.5676 15.3645C9.59394 15.3247 9.87117 15.4044 10.188 15.5108C11.0987 15.8432 11.2175 15.7634 10.6895 15.2049C9.69953 14.1944 9.39596 12.6918 9.87117 11.269L10.0956 10.6308L10.9667 11.495C12.7486 13.237 14.8473 14.2742 17.2495 14.58L17.9095 14.6598Z" fill="white"/>
</svg>
